<?xml version="1.0" standalone="no"?>
<!DOCTYPE svg PUBLIC "-//W3C//DTD SVG 20010904//EN"
 "http://www.w3.org/TR/2001/REC-SVG-20010904/DTD/svg10.dtd">
<svg version="1.0" xmlns="http://www.w3.org/2000/svg"
 width="604.000000pt" height="610.000000pt" viewBox="0 0 604.000000 610.000000"
 preserveAspectRatio="xMidYMid meet">

<g transform="translate(0.000000,610.000000) scale(0.100000,-0.100000)"
fill="#000000" stroke="none">
<path d="M2725 5740 c-47 -18 -50 -31 -55 -263 l-5 -220 -25 -8 c-222 -67
-322 -106 -474 -186 -55 -29 -105 -53 -111 -53 -6 0 -78 68 -160 150 -136 137
-153 150 -185 150 -33 0 -56 -21 -353 -318 -291 -291 -317 -320 -317 -351 0
-30 16 -50 153 -188 l153 -155 -77 -153 c-48 -95 -93 -203 -119 -286 -24 -74
-47 -144 -51 -157 -9 -22 -9 -23 -223 -22 -228 1 -244 -2 -265 -47 -7 -16 -11
-169 -11 -453 l0 -428 26 -31 26 -31 219 0 c218 0 219 0 228 -22 4 -13 27 -81
50 -153 44 -133 118 -301 172 -389 l31 -49 -530 -531 c-291 -292 -538 -544
-549 -561 -33 -49 -70 -156 -77 -220 -36 -338 285 -623 607 -539 68 17 140 48
177 76 14 11 262 255 551 544 l526 525 53 -31 c139 -82 318 -158 472 -200 l87
-24 3 -222 c3 -202 5 -224 22 -243 19 -21 24 -21 477 -21 l458 0 20 26 c20 25
21 39 21 243 l0 216 88 24 c154 43 409 153 495 214 l29 20 157 -157 c141 -140
161 -156 191 -156 32 0 60 26 352 317 295 294 318 320 318 352 0 31 -15 50
-153 189 l-154 154 77 152 c47 94 93 202 120 286 23 74 47 145 51 158 9 22 10
22 223 22 118 0 222 3 231 6 43 17 45 41 45 489 0 362 -2 430 -15 455 -9 17
-17 31 -18 32 -1 1 -105 5 -232 8 l-230 5 -7 25 c-54 178 -74 237 -110 319
-23 53 -63 134 -89 181 l-47 85 154 156 c144 145 154 158 154 193 0 36 -14 51
-315 352 -301 300 -317 314 -353 314 -35 0 -47 -10 -187 -150 -142 -142 -168
-162 -190 -141 -18 16 -179 96 -270 133 -76 32 -179 67 -285 97 l-25 8 -5 222
-5 223 -28 24 -28 24 -432 -1 c-238 0 -441 -4 -452 -9z m781 -360 c0 -108 4
-207 7 -221 8 -31 30 -43 122 -64 202 -48 432 -146 590 -252 27 -18 61 -33 74
-33 18 0 64 39 178 152 l153 153 236 -236 236 -236 -151 -151 c-167 -166 -172
-176 -127 -243 113 -166 211 -399 262 -621 25 -108 25 -108 275 -108 l209 0 0
-335 0 -335 -215 0 c-255 0 -241 6 -275 -133 -47 -193 -126 -381 -234 -560
-25 -42 -46 -87 -46 -100 0 -19 38 -63 152 -176 l153 -151 -237 -237 -238
-238 -153 153 c-110 109 -160 152 -177 152 -13 0 -55 -20 -94 -44 -151 -93
-360 -184 -521 -226 -44 -12 -97 -25 -117 -31 -21 -5 -43 -19 -49 -32 -8 -14
-12 -91 -13 -227 l-1 -205 -332 -3 -333 -2 0 200 c0 263 5 254 -145 290 -110
27 -266 84 -381 139 -67 32 -124 63 -127 68 -6 10 255 273 271 273 5 0 42 -14
83 -30 232 -96 382 -125 639 -125 230 1 363 25 560 100 392 149 733 477 891
856 254 608 122 1287 -340 1746 -302 301 -696 464 -1120 463 -262 -1 -470 -50
-708 -166 -330 -161 -615 -462 -754 -795 -163 -390 -170 -800 -22 -1188 19
-52 42 -106 49 -120 13 -26 11 -29 -123 -163 -75 -75 -141 -134 -146 -131 -5
3 -38 65 -72 137 -62 130 -124 308 -145 418 -6 31 -18 62 -27 70 -12 9 -73 14
-232 18 l-216 5 -3 333 -2 332 211 0 211 0 27 28 c20 19 30 43 35 77 21 139
131 408 240 588 25 42 46 88 46 102 0 22 -31 59 -150 179 l-149 152 234 234
235 234 147 -146 c90 -89 159 -149 176 -153 22 -6 40 1 90 33 166 107 384 199
582 247 89 21 110 31 124 62 7 15 11 99 11 224 l0 199 333 -2 332 -3 1 -195z
m-76 -796 c287 -54 528 -183 741 -394 282 -281 419 -609 419 -1005 -1 -275
-63 -502 -200 -729 -71 -119 -117 -176 -229 -286 -194 -190 -439 -323 -694
-375 -211 -43 -423 -40 -632 10 -103 24 -231 70 -241 86 -3 5 31 45 75 88 l79
79 79 -21 c66 -18 105 -21 253 -21 182 0 221 6 365 56 186 64 382 210 510 380
77 102 148 258 182 400 22 90 25 396 5 468 -39 138 -48 162 -66 179 -21 19
-41 24 -81 22 -11 -1 -139 -120 -307 -288 l-287 -287 -174 48 c-96 27 -180 51
-185 55 -6 4 -34 87 -61 186 l-51 180 285 285 c240 240 286 291 291 320 9 53
-21 84 -104 108 -137 41 -176 46 -332 46 -169 -1 -249 -16 -394 -74 -298 -118
-533 -366 -629 -665 -45 -140 -51 -183 -51 -345 1 -126 5 -171 23 -240 l21
-84 -82 -84 -83 -83 -23 50 c-63 138 -102 341 -102 536 1 293 75 543 231 780
239 362 650 606 1074 639 84 6 295 -5 375 -20z m-227 -580 c31 -3 57 -9 57
-13 0 -3 -108 -114 -241 -246 -132 -132 -247 -252 -255 -267 -15 -30 -11 -51
52 -268 13 -47 30 -103 36 -125 43 -160 53 -174 148 -199 57 -15 166 -45 258
-71 121 -35 164 -45 184 -45 15 0 104 83 278 256 291 289 266 279 277 117 23
-350 -171 -692 -489 -862 -122 -66 -299 -111 -433 -111 -75 0 -210 23 -292 51
-50 16 -66 18 -85 9 -13 -7 -426 -414 -918 -905 -717 -715 -905 -897 -945
-916 -37 -17 -72 -25 -132 -27 -75 -4 -89 -1 -145 26 -74 34 -130 87 -166 157
-24 44 -27 62 -27 145 0 80 4 103 24 145 20 40 209 235 923 948 495 495 900
908 904 921 3 12 -4 51 -16 86 -12 35 -28 111 -35 169 -38 285 64 572 273 773
152 146 336 233 547 258 69 8 101 7 218 -6z"/>
</g>
</svg>
